<svg data-v-0dd9719b="" version="1.0" xmlns="http://www.w3.org/2000/svg" xmlns:xlink="http://www.w3.org/1999/xlink" width="100%" height="100%" viewBox="0 0 340.000000 250.000000" preserveAspectRatio="xMidYMid meet" color-interpolation-filters="sRGB" style="margin: auto;"> <rect data-v-0dd9719b="" x="0" y="0" width="100%" height="100%" fill="#f9f7ea" fill-opacity="1" class="background"></rect> <rect data-v-0dd9719b="" x="0" y="0" width="100%" height="100%" fill="url(#watermark)" fill-opacity="1" class="watermarklayer"></rect> <g data-v-0dd9719b="" class="iconmbgsvg" transform="translate(100,54.887115478515625)"><g fill="#426755" hollow-target="textFill" mask="url(#558b11e3-cdc9-42d4-bd37-1d59b715ab59)"><g><g><rect fill="#426755" fill-opacity="0" stroke-width="2" x="0" y="0" width="140" height="140.22576347920153" class="image-rect"></rect> <svg filter="url(#colors2285540363)" x="0" y="0" width="140" height="140.22576347920153" filtersec="colorsf9668597296" class="image-svg-svg primary" style="overflow: visible;"><svg fill="#000000" xmlns:x="http://ns.adobe.com/Extensibility/1.0/" xmlns:i="http://ns.adobe.com/AdobeIllustrator/10.0/" xmlns:graph="http://ns.adobe.com/Graphs/1.0/" xmlns="http://www.w3.org/2000/svg" xmlns:xlink="http://www.w3.org/1999/xlink" version="1.1" x="0px" y="0px" viewBox="4.9693684577941895 4.896694660186768 90.06126403808594 90.20661163330078" style="enable-background:new 0 0 100 100;" xml:space="preserve"><g><g i:extraneous="self"><path class="st0" d="M95,44c-0.4-2.6-3-4.6-3.8-7c-0.8-2.5,0.2-5.6-1-7.9c-1.2-2.3-4.4-3.3-6-5.3c-1.6-2-1.8-5.3-3.7-7.1    c-1.9-1.7-5.2-1.6-7.4-3c-2.2-1.4-3.5-4.4-5.9-5.4c-2.4-1-5.5,0.3-8-0.3c-2.5-0.5-4.8-3-7.4-3.1c-2.5-0.1-5,2.1-7.6,2.5    c-2.6,0.3-5.6-1.1-8-0.4c-2.5,0.8-4.1,3.7-6.3,4.9c-2.3,1.2-5.6,0.8-7.6,2.4c-2,1.6-2.5,4.9-4.2,6.7c-1.7,1.9-5,2.7-6.4,4.8    C10.3,28,11,31.3,10,33.7c-1,2.4-3.8,4.2-4.3,6.7c-0.5,2.5,1.2,5.3,1.1,7.9C6.7,50.7,4.7,53.4,5,56c0.4,2.6,3,4.6,3.8,7    c0.8,2.5-0.2,5.6,1,7.9c1.2,2.3,4.4,3.3,6,5.3c1.6,2,1.8,5.3,3.7,7.1c1.9,1.7,5.2,1.6,7.4,3c2.2,1.4,3.5,4.4,5.9,5.4    c2.4,1,5.5-0.3,8,0.3c2.5,0.5,4.8,3,7.4,3.1c2.5,0.1,5-2.1,7.6-2.5c2.6-0.3,5.6,1.1,8,0.4c2.5-0.8,4.1-3.7,6.3-4.9    c2.3-1.2,5.6-0.8,7.6-2.4c2-1.6,2.5-4.9,4.2-6.7c1.7-1.9,5-2.7,6.4-4.8c1.4-2.2,0.7-5.4,1.7-7.8c1-2.4,3.8-4.2,4.3-6.7    c0.5-2.5-1.2-5.3-1.1-7.9C93.3,49.3,95.3,46.6,95,44z"></path></g></g></svg></svg> <defs><filter id="colors2285540363"><feColorMatrix type="matrix" values="0 0 0 0 0.2578125  0 0 0 0 0.40234375  0 0 0 0 0.33203125  0 0 0 1 0" class="icon-fecolormatrix"></feColorMatrix></filter> <filter id="colorsf9668597296"><feColorMatrix type="matrix" values="0 0 0 0 0.99609375  0 0 0 0 0.99609375  0 0 0 0 0.99609375  0 0 0 1 0" class="icon-fecolormatrix"></feColorMatrix></filter> <filter id="colorsb6780361386"><feColorMatrix type="matrix" values="0 0 0 0 0  0 0 0 0 0  0 0 0 0 0  0 0 0 1 0" class="icon-fecolormatrix"></feColorMatrix></filter></defs></g></g> <g transform="translate(24.330001831054688,38.557884216308594)"><g data-gra="path-name" fill-rule="" class="tp-name"><g transform="scale(1)"><g><path d="M3.59 6.79Q0 4.91 0 1.95L0 1.95Q0-1.01 3.12-7.21 6.24-13.42 11.47-21.45L11.47-21.45Q6.79-21.76 0-21.76L0-21.76Q1.87-26.83 9.05-26.83L9.05-26.83Q10.61-26.83 14.82-26.36L14.82-26.36Q23.56-39 31.12-47.66 38.69-56.32 41.18-56.32L41.18-56.32Q43.21-56.32 46.49-53.27L46.49-53.27Q44.93-52.1 41.92-43.56 38.92-35.02 36.62-24.84 34.32-14.66 34.32-8.42L34.32-8.42Q34.32-5.3 34.98-3.78 35.65-2.26 37.05-2.26L37.05-2.26Q39-2.26 41.65-5.11 44.3-7.96 47.42-13.88L47.42-13.88 48.83-12.4Q46.33-5.77 42.43-1.75 38.53 2.26 34.32 2.26L34.32 2.26Q30.73 2.26 29.09-0.86 27.46-3.98 27.46-9.83L27.46-9.83Q27.46-13.65 28.47-19.5L28.47-19.5Q24.49-20.12 17.32-20.98L17.32-20.98Q10.06-8.11 3.59 6.79L3.59 6.79ZM29.25-23.32Q30.65-29.87 32.92-36.89 35.18-43.91 37.52-49.45L37.52-49.45Q34.09-46.72 29.48-40.4 24.88-34.09 19.81-25.43L19.81-25.43 25.66-24.18Q28-23.56 29.25-23.32L29.25-23.32ZM65.52 6.79Q60.68 6.79 56.86 4.84 53.04 2.89 50.97-0.47 48.91-3.82 48.91-7.88L48.91-7.88Q48.91-12.48 51.52-16.81 54.13-21.14 58.66-24.18 63.18-27.22 68.8-28L68.8-28Q66.07-30.42 64.62-33.46 63.18-36.5 63.18-39.78L63.18-39.78Q63.18-43.91 65.32-47.7 67.47-51.48 71.33-53.78 75.19-56.08 80.11-56.08L80.11-56.08Q84.86-56.08 87.44-53.78 90.01-51.48 90.01-47.11L90.01-47.11Q90.01-44.23 88.96-41.42 87.91-38.61 86.31-36.85 84.71-35.1 83.3-35.1L83.3-35.1Q81.35-35.1 79.56-38.3L79.56-38.3Q86.42-43.91 86.42-48.75L86.42-48.75Q86.42-51.01 84.9-52.26 83.38-53.51 80.81-53.51L80.81-53.51Q77.45-53.51 75.04-51.44 72.62-49.37 71.37-46.06 70.12-42.74 70.12-39.08L70.12-39.08Q70.12-35.41 71.49-32.1 72.85-28.78 75.89-26.44L75.89-26.44Q70.43-25.58 66.26-22.66 62.09-19.73 59.79-15.72 57.49-11.7 57.49-7.72L57.49-7.72Q57.49-5.07 58.54-2.57 59.59-0.08 61.85 1.6 64.12 3.28 67.63 3.28L67.63 3.28Q71.76 3.28 75.93 0.94 80.11-1.4 83.62-5.3 87.13-9.2 89.23-13.65L89.23-13.65 91.34-12.32Q86.74-3.67 80.11 1.56 73.48 6.79 65.52 6.79L65.52 6.79Z" transform="translate(0, 56.31999969482422)"></path></g> <!----> <!----> <!----> <!----> <!----> <!----> <!----></g></g> <!----></g></g></g><mask id="558b11e3-cdc9-42d4-bd37-1d59b715ab59"><g fill="white"><g><rect fill-opacity="0" stroke-width="2" x="0" y="0" width="140" height="140.22576347920153" class="image-rect"></rect> <svg x="0" y="0" width="140" height="140.22576347920153" class="image-svg-svg primary" style="overflow: visible;" filter="url(#colorsf9668597296)"><svg xmlns:x="http://ns.adobe.com/Extensibility/1.0/" xmlns:i="http://ns.adobe.com/AdobeIllustrator/10.0/" xmlns:graph="http://ns.adobe.com/Graphs/1.0/" xmlns="http://www.w3.org/2000/svg" xmlns:xlink="http://www.w3.org/1999/xlink" version="1.1" x="0px" y="0px" viewBox="4.9693684577941895 4.896694660186768 90.06126403808594 90.20661163330078" style="enable-background:new 0 0 100 100;" xml:space="preserve"><g><g i:extraneous="self"><path class="st0" d="M95,44c-0.4-2.6-3-4.6-3.8-7c-0.8-2.5,0.2-5.6-1-7.9c-1.2-2.3-4.4-3.3-6-5.3c-1.6-2-1.8-5.3-3.7-7.1    c-1.9-1.7-5.2-1.6-7.4-3c-2.2-1.4-3.5-4.4-5.9-5.4c-2.4-1-5.5,0.3-8-0.3c-2.5-0.5-4.8-3-7.4-3.1c-2.5-0.1-5,2.1-7.6,2.5    c-2.6,0.3-5.6-1.1-8-0.4c-2.5,0.8-4.1,3.7-6.3,4.9c-2.3,1.2-5.6,0.8-7.6,2.4c-2,1.6-2.5,4.9-4.2,6.7c-1.7,1.9-5,2.7-6.4,4.8    C10.3,28,11,31.3,10,33.7c-1,2.4-3.8,4.2-4.3,6.7c-0.5,2.5,1.2,5.3,1.1,7.9C6.7,50.7,4.7,53.4,5,56c0.4,2.6,3,4.6,3.8,7    c0.8,2.5-0.2,5.6,1,7.9c1.2,2.3,4.4,3.3,6,5.3c1.6,2,1.8,5.3,3.7,7.1c1.9,1.7,5.2,1.6,7.4,3c2.2,1.4,3.5,4.4,5.9,5.4    c2.4,1,5.5-0.3,8,0.3c2.5,0.5,4.8,3,7.4,3.1c2.5,0.1,5-2.1,7.6-2.5c2.6-0.3,5.6,1.1,8,0.4c2.5-0.8,4.1-3.7,6.3-4.9    c2.3-1.2,5.6-0.8,7.6-2.4c2-1.6,2.5-4.9,4.2-6.7c1.7-1.9,5-2.7,6.4-4.8c1.4-2.2,0.7-5.4,1.7-7.8c1-2.4,3.8-4.2,4.3-6.7    c0.5-2.5-1.2-5.3-1.1-7.9C93.3,49.3,95.3,46.6,95,44z"></path></g></g></svg></svg> <defs>  </defs></g></g> <g transform="translate(24.330001831054688,38.557884216308594)" fill="black"><g data-gra="path-name" fill-rule="" class="tp-name"><g transform="scale(1)"><g><path d="M3.59 6.79Q0 4.91 0 1.95L0 1.95Q0-1.01 3.12-7.21 6.24-13.42 11.47-21.45L11.47-21.45Q6.79-21.76 0-21.76L0-21.76Q1.87-26.83 9.05-26.83L9.05-26.83Q10.61-26.83 14.82-26.36L14.82-26.36Q23.56-39 31.12-47.66 38.69-56.32 41.18-56.32L41.18-56.32Q43.21-56.32 46.49-53.27L46.49-53.27Q44.93-52.1 41.92-43.56 38.92-35.02 36.62-24.84 34.32-14.66 34.32-8.42L34.32-8.42Q34.32-5.3 34.98-3.78 35.65-2.26 37.05-2.26L37.05-2.26Q39-2.26 41.65-5.11 44.3-7.96 47.42-13.88L47.42-13.88 48.83-12.4Q46.33-5.77 42.43-1.75 38.53 2.26 34.32 2.26L34.32 2.26Q30.73 2.26 29.09-0.86 27.46-3.98 27.46-9.83L27.46-9.83Q27.46-13.65 28.47-19.5L28.47-19.5Q24.49-20.12 17.32-20.98L17.32-20.98Q10.06-8.11 3.59 6.79L3.59 6.79ZM29.25-23.32Q30.65-29.87 32.92-36.89 35.18-43.91 37.52-49.45L37.52-49.45Q34.09-46.72 29.48-40.4 24.88-34.09 19.81-25.43L19.81-25.43 25.66-24.18Q28-23.56 29.25-23.32L29.25-23.32ZM65.52 6.79Q60.68 6.79 56.86 4.84 53.04 2.89 50.97-0.47 48.91-3.82 48.91-7.88L48.91-7.88Q48.91-12.48 51.52-16.81 54.13-21.14 58.66-24.18 63.18-27.22 68.8-28L68.8-28Q66.07-30.42 64.62-33.46 63.18-36.5 63.18-39.78L63.18-39.78Q63.18-43.91 65.32-47.7 67.47-51.48 71.33-53.78 75.19-56.08 80.11-56.08L80.11-56.08Q84.86-56.08 87.44-53.78 90.01-51.48 90.01-47.11L90.01-47.11Q90.01-44.23 88.96-41.42 87.91-38.61 86.31-36.85 84.71-35.1 83.3-35.1L83.3-35.1Q81.35-35.1 79.56-38.3L79.56-38.3Q86.42-43.91 86.42-48.75L86.42-48.75Q86.42-51.01 84.9-52.26 83.38-53.51 80.81-53.51L80.81-53.51Q77.45-53.51 75.04-51.44 72.62-49.37 71.37-46.06 70.12-42.74 70.12-39.08L70.12-39.08Q70.12-35.41 71.49-32.1 72.85-28.78 75.89-26.44L75.89-26.44Q70.43-25.58 66.26-22.66 62.09-19.73 59.79-15.72 57.49-11.7 57.49-7.72L57.49-7.72Q57.49-5.07 58.54-2.57 59.59-0.08 61.85 1.6 64.12 3.28 67.63 3.28L67.63 3.28Q71.76 3.28 75.93 0.94 80.11-1.4 83.62-5.3 87.13-9.2 89.23-13.65L89.23-13.65 91.34-12.32Q86.74-3.67 80.11 1.56 73.48 6.79 65.52 6.79L65.52 6.79Z" transform="translate(0, 56.31999969482422)"></path></g>       </g></g> </g></mask><defs v-gra="od"></defs></svg>